<svg xmlns="http://www.w3.org/2000/svg" viewBox="485.102 308.398 230.91 60.821" width="230.91" height="60.821">
<path d="M 602.176 324.212 L 590.435 324.212 C 590.342 322.8 590.252 321.437 590.148 319.857 L 579.07 319.857 L 579.07 342.271 L 590.062 342.271 C 590.186 340.967 590.314 339.623 590.453 338.148 L 602.515 338.148 C 602.119 341.519 602.272 345.02 601.203 348.101 C 599.905 351.847 596.375 353.536 592.481 353.682 C 587.211 353.88 581.92 353.926 576.655 353.684 C 571.084 353.428 567.844 350.424 567.627 344.688 C 567.285 335.68 567.284 326.642 567.612 317.633 C 567.833 311.546 571.178 308.68 577.317 308.525 C 582.413 308.398 587.517 308.512 592.617 308.553 C 597.072 308.589 602.205 312.143 602.178 318.012 C 602.169 320.006 602.176 321.999 602.176 324.212" fill="#ffffff" fill-rule="nonzero"/>
<path d="M 642.141 308.565 L 675.199 308.565 C 675.442 312.895 676.046 317.155 673.291 320.943 C 668.858 327.037 664.39 333.106 659.94 339.188 C 659.282 340.087 658.642 341.002 657.645 342.396 L 675.21 342.396 L 675.21 353.613 L 642.15 353.613 C 641.591 348.759 641.678 344.127 644.876 339.949 C 649.299 334.173 653.551 328.268 657.87 322.414 C 658.426 321.661 658.942 320.879 659.73 319.745 L 642.141 319.745" fill="#ffffff" fill-rule="nonzero"/>
<path d="M 534.213 340.466 C 534.169 337.332 531.578 334.799 528.477 334.857 C 525.369 334.914 522.884 337.511 522.933 340.649 C 522.982 343.806 525.567 346.342 528.664 346.27 C 531.785 346.196 534.258 343.612 534.213 340.466 M 511.577 353.591 C 513.564 346.112 515.509 338.783 517.532 331.163 L 511.635 331.163 L 511.635 319.907 C 512.238 319.837 512.825 319.711 513.412 319.71 C 520.448 319.695 527.485 319.637 534.521 319.716 C 542.268 319.802 545.612 323.15 545.668 330.821 C 545.724 338.346 545.68 345.871 545.68 353.591" fill="#ffffff" fill-rule="nonzero"/>
<path d="M 626.438 340.486 C 626.393 337.45 623.67 334.821 620.607 334.857 C 617.539 334.893 614.889 337.579 614.927 340.615 C 614.966 343.67 617.661 346.291 620.73 346.262 C 623.764 346.234 626.482 343.483 626.438 340.486 M 639.986 353.708 L 601.364 353.708 C 607.752 338.725 614.054 323.95 620.663 308.454 C 627.218 323.808 633.529 338.588 639.986 353.708" fill="#ffffff" fill-rule="nonzero"/>
<path d="M 696.684 334.857 C 693.614 334.895 690.967 337.584 691.008 340.62 C 691.048 343.674 693.745 346.295 696.814 346.262 C 699.85 346.231 702.564 343.479 702.518 340.481 C 702.47 337.445 699.746 334.82 696.684 334.857 M 696.746 308.448 C 703.307 323.821 709.601 338.565 716.012 353.586 L 677.498 353.586 C 683.846 338.7 690.155 323.904 696.746 308.448" fill="#ffffff" fill-rule="nonzero"/>
<path d="M 496.448 342.468 L 509.166 342.468 L 509.166 353.459 C 503.58 353.459 498.047 353.816 492.586 353.347 C 488.21 352.971 486.213 350.459 485.395 346.166 C 485.298 345.651 485.119 345.134 485.119 344.617 C 485.102 332.71 485.106 320.803 485.106 308.669 L 496.448 308.669" fill="#ffffff" fill-rule="nonzero"/>
<path d="M 532.038 365.37 C 532.003 365.189 531.941 365.016 531.85 364.862 C 531.752 364.709 531.641 364.577 531.508 364.466 C 531.369 364.355 531.209 364.27 531.042 364.216 C 530.869 364.159 530.681 364.131 530.478 364.131 C 530.263 364.131 530.061 364.167 529.866 364.23 C 529.672 364.298 529.511 364.383 529.386 364.486 C 529.247 364.598 529.142 364.73 529.073 364.883 C 528.997 365.036 528.963 365.203 528.963 365.384 C 528.963 365.58 529.003 365.747 529.088 365.886 C 529.17 366.031 529.275 366.15 529.408 366.241 C 529.539 366.345 529.678 366.428 529.831 366.491 C 529.956 366.547 530.095 366.609 530.263 366.678 C 530.486 366.777 530.653 366.839 530.764 366.88 C 530.917 366.942 531.07 367.019 531.223 367.103 C 531.355 367.186 531.467 367.291 531.564 367.416 C 531.648 367.541 531.697 367.694 531.697 367.875 C 531.697 368.014 531.669 368.147 531.613 368.266 C 531.55 368.391 531.473 368.495 531.377 368.572 C 531.266 368.661 531.139 368.731 531 368.773 C 530.847 368.828 530.681 368.85 530.506 368.85 C 530.313 368.85 530.138 368.822 529.984 368.766 C 529.831 368.711 529.7 368.634 529.588 368.536 C 529.477 368.445 529.394 368.328 529.331 368.189 C 529.261 368.05 529.227 367.903 529.213 367.75 L 528.836 367.855 C 528.864 368.05 528.92 368.23 529.003 368.397 C 529.088 368.572 529.198 368.717 529.338 368.828 C 529.484 368.953 529.65 369.052 529.839 369.106 C 530.033 369.177 530.248 369.211 530.492 369.211 C 530.73 369.211 530.952 369.177 531.147 369.106 C 531.342 369.052 531.508 368.961 531.648 368.836 C 531.788 368.725 531.891 368.578 531.967 368.411 C 532.038 368.252 532.08 368.07 532.08 367.869 C 532.08 367.653 532.03 367.464 531.941 367.305 C 531.85 367.159 531.731 367.027 531.592 366.908 C 531.459 366.811 531.3 366.714 531.119 366.63 C 530.938 366.553 530.77 366.484 530.617 366.42 C 530.353 366.323 530.2 366.261 530.166 366.247 C 530.006 366.184 529.866 366.116 529.755 366.039 C 529.63 365.969 529.533 365.878 529.463 365.767 C 529.38 365.662 529.345 365.544 529.345 365.405 C 529.345 365.28 529.372 365.155 529.428 365.044 C 529.484 364.939 529.561 364.848 529.658 364.766 C 529.748 364.695 529.866 364.639 530.006 364.591 C 530.131 364.55 530.277 364.528 530.444 364.528 C 530.758 364.528 531.022 364.619 531.238 364.792 C 531.445 364.967 531.578 365.211 531.634 365.517 L 531.661 365.467 L 532.038 365.37" fill="#ffffff" fill-rule="nonzero"/>
<path d="M 537.433 364.23 L 537.433 367.305 C 537.433 367.82 537.314 368.203 537.091 368.453 C 536.861 368.711 536.52 368.836 536.061 368.836 C 535.602 368.836 535.261 368.711 535.039 368.453 C 534.809 368.203 534.697 367.82 534.697 367.305 L 534.697 364.23 L 534.302 364.23 L 534.302 367.284 C 534.302 367.917 534.447 368.397 534.753 368.725 C 535.045 369.044 535.477 369.205 536.061 369.205 C 536.631 369.205 537.07 369.044 537.377 368.725 C 537.683 368.405 537.836 367.923 537.836 367.284 L 537.828 364.23 L 537.433 364.23" fill="#ffffff" fill-rule="nonzero"/>
<path d="M 540.313 364.244 L 540.313 369.106 L 541.934 369.106 C 542.42 369.106 542.797 368.989 543.061 368.737 C 543.333 368.487 543.472 368.139 543.472 367.694 C 543.472 367.5 543.43 367.325 543.353 367.166 C 543.277 367.019 543.18 366.894 543.061 366.783 C 542.936 366.678 542.811 366.595 542.684 366.539 C 542.545 366.484 542.428 366.448 542.33 366.442 L 542.33 366.428 C 542.42 366.414 542.519 366.38 542.616 366.323 C 542.713 366.269 542.803 366.198 542.888 366.116 C 542.97 366.031 543.041 365.934 543.095 365.816 C 543.152 365.697 543.18 365.572 543.18 365.433 C 543.18 365.266 543.144 365.106 543.081 364.953 C 543.013 364.806 542.922 364.681 542.811 364.577 C 542.692 364.48 542.553 364.397 542.386 364.341 C 542.219 364.284 542.031 364.258 541.822 364.258 L 541.816 364.244 L 540.313 364.244 M 540.723 366.295 L 540.723 364.598 L 541.781 364.598 C 542.086 364.598 542.33 364.675 542.511 364.828 C 542.692 364.981 542.783 365.189 542.783 365.447 C 542.783 365.558 542.755 365.67 542.706 365.781 C 542.658 365.886 542.588 365.975 542.505 366.052 C 542.414 366.136 542.309 366.192 542.191 366.233 C 542.066 366.275 541.927 366.295 541.781 366.295 L 541.794 366.295 L 540.723 366.295 M 540.723 368.745 L 540.723 366.616 L 541.913 366.616 C 542.066 366.616 542.219 366.644 542.358 366.7 C 542.497 366.755 542.616 366.831 542.727 366.922 C 542.831 367.012 542.914 367.123 542.977 367.256 C 543.033 367.381 543.067 367.528 543.067 367.687 C 543.067 367.861 543.041 368.014 542.984 368.139 C 542.928 368.272 542.852 368.383 542.755 368.473 C 542.658 368.572 542.539 368.641 542.4 368.683 C 542.253 368.737 542.1 368.759 541.941 368.759 L 541.941 368.745 L 540.723 368.745" fill="#ffffff" fill-rule="nonzero"/>
<path d="M 549.159 369.1 L 549.577 369.1 L 547.65 364.23 L 547.281 364.23 L 545.353 369.1 L 545.77 369.1 L 546.32 367.681 L 548.609 367.681 L 549.159 369.1 M 546.473 367.325 L 547.281 365.245 C 547.302 365.189 547.344 365.064 547.406 364.869 C 547.434 364.758 547.455 364.703 547.469 364.703 L 547.475 364.703 C 547.475 364.703 547.497 364.758 547.538 364.869 C 547.594 365.064 547.636 365.189 547.663 365.245 L 548.484 367.325 L 546.473 367.325" fill="#ffffff" fill-rule="nonzero"/>
<path d="M 554.538 365.37 C 554.503 365.189 554.441 365.016 554.35 364.862 C 554.252 364.709 554.141 364.577 554.008 364.466 C 553.869 364.355 553.709 364.27 553.542 364.216 C 553.369 364.159 553.181 364.131 552.978 364.131 C 552.763 364.131 552.561 364.167 552.366 364.23 C 552.172 364.298 552.011 364.383 551.886 364.486 C 551.747 364.598 551.642 364.73 551.573 364.883 C 551.497 365.036 551.463 365.203 551.463 365.384 C 551.463 365.58 551.503 365.747 551.588 365.886 C 551.67 366.031 551.775 366.15 551.908 366.241 C 552.039 366.345 552.178 366.428 552.331 366.491 C 552.456 366.547 552.595 366.609 552.763 366.678 C 552.986 366.777 553.153 366.839 553.264 366.88 C 553.417 366.942 553.57 367.019 553.723 367.103 C 553.855 367.186 553.967 367.291 554.064 367.416 C 554.148 367.541 554.197 367.694 554.197 367.875 C 554.197 368.014 554.169 368.147 554.113 368.266 C 554.05 368.391 553.973 368.495 553.877 368.572 C 553.766 368.661 553.639 368.731 553.5 368.773 C 553.347 368.828 553.181 368.85 553.006 368.85 C 552.813 368.85 552.638 368.822 552.484 368.766 C 552.331 368.711 552.2 368.634 552.088 368.536 C 551.977 368.445 551.894 368.328 551.831 368.189 C 551.761 368.05 551.727 367.903 551.713 367.75 L 551.336 367.855 C 551.364 368.05 551.42 368.23 551.503 368.397 C 551.588 368.572 551.698 368.717 551.838 368.828 C 551.984 368.953 552.15 369.052 552.339 369.106 C 552.533 369.177 552.748 369.211 552.992 369.211 C 553.23 369.211 553.452 369.177 553.647 369.106 C 553.842 369.052 554.008 368.961 554.148 368.836 C 554.288 368.725 554.391 368.578 554.467 368.411 C 554.538 368.252 554.58 368.07 554.58 367.869 C 554.58 367.653 554.53 367.464 554.441 367.305 C 554.35 367.159 554.231 367.027 554.092 366.908 C 553.959 366.811 553.8 366.714 553.619 366.63 C 553.438 366.553 553.27 366.484 553.117 366.42 C 552.853 366.323 552.7 366.261 552.666 366.247 C 552.506 366.184 552.366 366.116 552.255 366.039 C 552.13 365.969 552.033 365.878 551.963 365.767 C 551.88 365.662 551.845 365.544 551.845 365.405 C 551.845 365.28 551.872 365.155 551.928 365.044 C 551.984 364.939 552.061 364.848 552.158 364.766 C 552.248 364.695 552.366 364.639 552.506 364.591 C 552.631 364.55 552.777 364.528 552.944 364.528 C 553.258 364.528 553.522 364.619 553.738 364.792 C 553.945 364.967 554.078 365.211 554.134 365.517 L 554.161 365.467 L 554.538 365.37" fill="#ffffff" fill-rule="nonzero"/>
<path d="M 556.467 364.23 L 556.467 364.605 L 557.991 364.605 L 557.991 369.1 L 558.388 369.1 L 558.388 364.605 L 559.911 364.605 L 559.911 364.23 L 556.467 364.23" fill="#ffffff" fill-rule="nonzero"/>
<path d="M 565.459 369.1 L 565.877 369.1 L 563.95 364.23 L 563.581 364.23 L 561.653 369.1 L 562.07 369.1 L 562.62 367.681 L 564.909 367.681 L 565.459 369.1 M 562.773 367.325 L 563.581 365.245 C 563.602 365.189 563.644 365.064 563.706 364.869 C 563.734 364.758 563.755 364.703 563.769 364.703 L 563.775 364.703 C 563.775 364.703 563.797 364.758 563.838 364.869 C 563.894 365.064 563.936 365.189 563.963 365.245 L 564.784 367.325 L 562.773 367.325" fill="#ffffff" fill-rule="nonzero"/>
<path d="M 570.838 365.37 C 570.803 365.189 570.741 365.016 570.65 364.862 C 570.552 364.709 570.441 364.577 570.308 364.466 C 570.169 364.355 570.009 364.27 569.842 364.216 C 569.669 364.159 569.481 364.131 569.278 364.131 C 569.063 364.131 568.861 364.167 568.666 364.23 C 568.472 364.298 568.311 364.383 568.186 364.486 C 568.047 364.598 567.942 364.73 567.873 364.883 C 567.797 365.036 567.763 365.203 567.763 365.384 C 567.763 365.58 567.803 365.747 567.888 365.886 C 567.97 366.031 568.075 366.15 568.208 366.241 C 568.339 366.345 568.478 366.428 568.631 366.491 C 568.756 366.547 568.895 366.609 569.063 366.678 C 569.286 366.777 569.453 366.839 569.564 366.88 C 569.717 366.942 569.87 367.019 570.023 367.103 C 570.155 367.186 570.267 367.291 570.364 367.416 C 570.448 367.541 570.497 367.694 570.497 367.875 C 570.497 368.014 570.469 368.147 570.413 368.266 C 570.35 368.391 570.273 368.495 570.177 368.572 C 570.066 368.661 569.939 368.731 569.8 368.773 C 569.647 368.828 569.481 368.85 569.306 368.85 C 569.113 368.85 568.938 368.822 568.784 368.766 C 568.631 368.711 568.5 368.634 568.388 368.536 C 568.277 368.445 568.194 368.328 568.131 368.189 C 568.061 368.05 568.027 367.903 568.013 367.75 L 567.636 367.855 C 567.664 368.05 567.72 368.23 567.803 368.397 C 567.888 368.572 567.998 368.717 568.138 368.828 C 568.284 368.953 568.45 369.052 568.639 369.106 C 568.833 369.177 569.048 369.211 569.292 369.211 C 569.53 369.211 569.752 369.177 569.947 369.106 C 570.142 369.052 570.308 368.961 570.448 368.836 C 570.588 368.725 570.691 368.578 570.767 368.411 C 570.838 368.252 570.88 368.07 570.88 367.869 C 570.88 367.653 570.83 367.464 570.741 367.305 C 570.65 367.159 570.531 367.027 570.392 366.908 C 570.259 366.811 570.1 366.714 569.919 366.63 C 569.738 366.553 569.57 366.484 569.417 366.42 C 569.153 366.323 569 366.261 568.966 366.247 C 568.806 366.184 568.666 366.116 568.555 366.039 C 568.43 365.969 568.333 365.878 568.263 365.767 C 568.18 365.662 568.145 365.544 568.145 365.405 C 568.145 365.28 568.172 365.155 568.228 365.044 C 568.284 364.939 568.361 364.848 568.458 364.766 C 568.548 364.695 568.666 364.639 568.806 364.591 C 568.931 364.55 569.077 364.528 569.244 364.528 C 569.558 364.528 569.822 364.619 570.038 364.792 C 570.245 364.967 570.378 365.211 570.434 365.517 L 570.461 365.467 L 570.838 365.37" fill="#ffffff" fill-rule="nonzero"/>
<path d="M 582.113 364.244 L 582.113 369.106 L 583.734 369.106 C 584.22 369.106 584.597 368.989 584.861 368.737 C 585.133 368.487 585.272 368.139 585.272 367.694 C 585.272 367.5 585.23 367.325 585.153 367.166 C 585.077 367.019 584.98 366.894 584.861 366.783 C 584.736 366.678 584.611 366.595 584.484 366.539 C 584.345 366.484 584.228 366.448 584.13 366.442 L 584.13 366.428 C 584.22 366.414 584.319 366.38 584.416 366.323 C 584.513 366.269 584.603 366.198 584.688 366.116 C 584.77 366.031 584.841 365.934 584.895 365.816 C 584.952 365.697 584.98 365.572 584.98 365.433 C 584.98 365.266 584.944 365.106 584.881 364.953 C 584.813 364.806 584.722 364.681 584.611 364.577 C 584.492 364.48 584.353 364.397 584.186 364.341 C 584.019 364.284 583.831 364.258 583.622 364.258 L 583.616 364.244 L 582.113 364.244 M 582.523 366.295 L 582.523 364.598 L 583.581 364.598 C 583.886 364.598 584.13 364.675 584.311 364.828 C 584.492 364.981 584.583 365.189 584.583 365.447 C 584.583 365.558 584.555 365.67 584.506 365.781 C 584.458 365.886 584.388 365.975 584.305 366.052 C 584.214 366.136 584.109 366.192 583.991 366.233 C 583.866 366.275 583.727 366.295 583.581 366.295 L 583.594 366.295 L 582.523 366.295 M 582.523 368.745 L 582.523 366.616 L 583.713 366.616 C 583.866 366.616 584.019 366.644 584.158 366.7 C 584.297 366.755 584.416 366.831 584.527 366.922 C 584.631 367.012 584.714 367.123 584.777 367.256 C 584.833 367.381 584.867 367.528 584.867 367.687 C 584.867 367.861 584.841 368.014 584.784 368.139 C 584.728 368.272 584.652 368.383 584.555 368.473 C 584.458 368.572 584.339 368.641 584.2 368.683 C 584.053 368.737 583.9 368.759 583.741 368.759 L 583.741 368.745 L 582.523 368.745" fill="#ffffff" fill-rule="nonzero"/>
<path d="M 590.506 364.23 L 589.331 365.906 L 589.227 366.073 C 589.213 366.087 589.198 366.116 589.178 366.15 C 589.158 366.184 589.144 366.205 589.136 366.219 L 589.067 366.323 L 589.039 366.366 L 589.031 366.366 L 589.005 366.323 L 588.934 366.219 L 588.838 366.073 L 588.733 365.906 L 587.556 364.23 L 587.111 364.23 L 588.83 366.7 L 588.83 369.1 L 589.22 369.1 L 589.22 366.7 L 590.952 364.23 L 590.506 364.23" fill="#ffffff" fill-rule="nonzero"/>
<path d="M 596.113 364.244 L 596.113 369.106 L 597.734 369.106 C 598.22 369.106 598.597 368.989 598.861 368.737 C 599.133 368.487 599.272 368.139 599.272 367.694 C 599.272 367.5 599.23 367.325 599.153 367.166 C 599.077 367.019 598.98 366.894 598.861 366.783 C 598.736 366.678 598.611 366.595 598.484 366.539 C 598.345 366.484 598.228 366.448 598.13 366.442 L 598.13 366.428 C 598.22 366.414 598.319 366.38 598.416 366.323 C 598.513 366.269 598.603 366.198 598.688 366.116 C 598.77 366.031 598.841 365.934 598.895 365.816 C 598.952 365.697 598.98 365.572 598.98 365.433 C 598.98 365.266 598.944 365.106 598.881 364.953 C 598.813 364.806 598.722 364.681 598.611 364.577 C 598.492 364.48 598.353 364.397 598.186 364.341 C 598.019 364.284 597.831 364.258 597.622 364.258 L 597.616 364.244 L 596.113 364.244 M 596.523 366.295 L 596.523 364.598 L 597.581 364.598 C 597.886 364.598 598.13 364.675 598.311 364.828 C 598.492 364.981 598.583 365.189 598.583 365.447 C 598.583 365.558 598.555 365.67 598.506 365.781 C 598.458 365.886 598.388 365.975 598.305 366.052 C 598.214 366.136 598.109 366.192 597.991 366.233 C 597.866 366.275 597.727 366.295 597.581 366.295 L 597.594 366.295 L 596.523 366.295 M 596.523 368.745 L 596.523 366.616 L 597.713 366.616 C 597.866 366.616 598.019 366.644 598.158 366.7 C 598.297 366.755 598.416 366.831 598.527 366.922 C 598.631 367.012 598.714 367.123 598.777 367.256 C 598.833 367.381 598.867 367.528 598.867 367.687 C 598.867 367.861 598.841 368.014 598.784 368.139 C 598.728 368.272 598.652 368.383 598.555 368.473 C 598.458 368.572 598.339 368.641 598.2 368.683 C 598.053 368.737 597.9 368.759 597.741 368.759 L 597.741 368.745 L 596.523 368.745" fill="#ffffff" fill-rule="nonzero"/>
<path d="M 601.178 366.686 C 601.178 367.075 601.234 367.423 601.345 367.73 C 601.456 368.042 601.609 368.306 601.805 368.53 C 602 368.752 602.23 368.927 602.508 369.044 C 602.786 369.162 603.084 369.219 603.391 369.219 C 603.705 369.219 603.997 369.162 604.267 369.052 C 604.539 368.933 604.775 368.766 604.978 368.544 C 605.172 368.328 605.333 368.062 605.444 367.744 C 605.555 367.437 605.611 367.083 605.611 366.692 C 605.611 366.317 605.555 365.969 605.444 365.648 C 605.333 365.336 605.172 365.072 604.978 364.848 C 604.775 364.633 604.539 364.466 604.267 364.341 C 603.989 364.222 603.691 364.159 603.377 364.159 C 603.07 364.159 602.778 364.222 602.5 364.341 C 602.222 364.466 601.986 364.633 601.791 364.848 C 601.589 365.072 601.436 365.336 601.325 365.648 C 601.213 365.969 601.158 366.317 601.158 366.7 L 601.178 366.686 M 601.609 366.664 C 601.609 366.331 601.652 366.031 601.742 365.767 C 601.825 365.503 601.95 365.28 602.117 365.098 C 602.278 364.919 602.466 364.78 602.688 364.681 C 602.911 364.584 603.155 364.536 603.419 364.536 C 603.677 364.536 603.92 364.584 604.142 364.681 C 604.366 364.78 604.559 364.919 604.72 365.098 C 604.88 365.28 605.005 365.503 605.095 365.767 C 605.18 366.031 605.228 366.331 605.228 366.678 C 605.228 367.006 605.18 367.305 605.089 367.569 C 604.992 367.841 604.866 368.07 604.713 368.252 C 604.547 368.445 604.358 368.584 604.136 368.683 C 603.913 368.78 603.669 368.828 603.405 368.828 C 603.141 368.828 602.897 368.78 602.675 368.683 C 602.445 368.584 602.25 368.439 602.097 368.258 C 601.93 368.07 601.805 367.847 601.72 367.583 C 601.623 367.319 601.581 367.019 601.581 366.686 L 601.609 366.664" fill="#ffffff" fill-rule="nonzero"/>
<path d="M 611.581 368.348 L 611.581 369.114 L 611.93 369.114 L 611.93 366.63 L 610.211 366.63 L 610.211 366.978 L 611.581 366.978 L 611.581 367.812 C 611.541 367.931 611.47 368.05 611.373 368.161 C 611.269 368.286 611.15 368.397 611.019 368.487 C 610.872 368.592 610.713 368.675 610.538 368.731 C 610.35 368.802 610.148 368.828 609.939 368.828 C 609.675 368.828 609.431 368.78 609.209 368.683 C 608.98 368.584 608.784 368.445 608.625 368.258 C 608.458 368.077 608.333 367.847 608.242 367.583 C 608.145 367.319 608.103 367.019 608.103 366.686 C 608.103 366.352 608.145 366.052 608.234 365.787 C 608.325 365.523 608.45 365.302 608.611 365.12 C 608.77 364.939 608.959 364.8 609.181 364.703 C 609.405 364.605 609.647 364.556 609.913 364.556 C 610.245 364.556 610.552 364.639 610.83 364.806 C 611.102 364.973 611.311 365.217 611.456 365.537 L 611.853 365.433 C 611.672 365.044 611.422 364.737 611.102 364.514 C 610.767 364.292 610.372 364.173 609.913 364.167 C 609.606 364.167 609.314 364.23 609.036 364.347 C 608.756 364.473 608.52 364.639 608.325 364.856 C 608.123 365.078 607.97 365.342 607.859 365.656 C 607.748 365.969 607.692 366.317 607.692 366.706 C 607.692 367.089 607.748 367.437 607.859 367.75 C 607.97 368.07 608.123 368.334 608.319 368.544 C 608.514 368.759 608.742 368.927 609.022 369.044 C 609.3 369.162 609.592 369.219 609.898 369.219 C 610.128 369.219 610.33 369.191 610.511 369.128 C 610.677 369.08 610.838 369.009 610.991 368.912 C 611.13 368.828 611.248 368.737 611.339 368.641 C 611.428 368.544 611.498 368.459 611.547 368.391 L 611.575 368.348 L 611.581 368.348" fill="#ffffff" fill-rule="nonzero"/>
<path d="M 613.978 366.686 C 613.978 367.075 614.034 367.423 614.145 367.73 C 614.256 368.042 614.409 368.306 614.605 368.53 C 614.8 368.752 615.03 368.927 615.308 369.044 C 615.586 369.162 615.884 369.219 616.191 369.219 C 616.505 369.219 616.797 369.162 617.067 369.052 C 617.339 368.933 617.575 368.766 617.778 368.544 C 617.972 368.328 618.133 368.062 618.244 367.744 C 618.355 367.437 618.411 367.083 618.411 366.692 C 618.411 366.317 618.355 365.969 618.244 365.648 C 618.133 365.336 617.972 365.072 617.778 364.848 C 617.575 364.633 617.339 364.466 617.067 364.341 C 616.789 364.222 616.491 364.159 616.177 364.159 C 615.87 364.159 615.578 364.222 615.3 364.341 C 615.022 364.466 614.786 364.633 614.591 364.848 C 614.389 365.072 614.236 365.336 614.125 365.648 C 614.013 365.969 613.958 366.317 613.958 366.7 L 613.978 366.686 M 614.409 366.664 C 614.409 366.331 614.452 366.031 614.542 365.767 C 614.625 365.503 614.75 365.28 614.917 365.098 C 615.078 364.919 615.266 364.78 615.488 364.681 C 615.711 364.584 615.955 364.536 616.219 364.536 C 616.477 364.536 616.72 364.584 616.942 364.681 C 617.166 364.78 617.359 364.919 617.52 365.098 C 617.68 365.28 617.805 365.503 617.895 365.767 C 617.98 366.031 618.028 366.331 618.028 366.678 C 618.028 367.006 617.98 367.305 617.889 367.569 C 617.792 367.841 617.666 368.07 617.513 368.252 C 617.347 368.445 617.158 368.584 616.936 368.683 C 616.713 368.78 616.469 368.828 616.205 368.828 C 615.941 368.828 615.697 368.78 615.475 368.683 C 615.245 368.584 615.05 368.439 614.897 368.258 C 614.73 368.07 614.605 367.847 614.52 367.583 C 614.423 367.319 614.381 367.019 614.381 366.686 L 614.409 366.664" fill="#ffffff" fill-rule="nonzero"/>
<path d="M 620.267 364.23 L 620.267 364.605 L 621.791 364.605 L 621.791 369.1 L 622.188 369.1 L 622.188 364.605 L 623.711 364.605 L 623.711 364.23 L 620.267 364.23" fill="#ffffff" fill-rule="nonzero"/>
<path d="M 629.259 369.1 L 629.677 369.1 L 627.75 364.23 L 627.381 364.23 L 625.453 369.1 L 625.87 369.1 L 626.42 367.681 L 628.709 367.681 L 629.259 369.1 M 626.573 367.325 L 627.381 365.245 C 627.402 365.189 627.444 365.064 627.506 364.869 C 627.534 364.758 627.555 364.703 627.569 364.703 L 627.575 364.703 C 627.575 364.703 627.597 364.758 627.638 364.869 C 627.694 365.064 627.736 365.189 627.763 365.245 L 628.584 367.325 L 626.573 367.325" fill="#ffffff" fill-rule="nonzero"/>
<path d="M 638.159 369.1 L 638.577 369.1 L 636.65 364.23 L 636.281 364.23 L 634.353 369.1 L 634.77 369.1 L 635.32 367.681 L 637.609 367.681 L 638.159 369.1 M 635.473 367.325 L 636.281 365.245 C 636.302 365.189 636.344 365.064 636.406 364.869 C 636.434 364.758 636.455 364.703 636.469 364.703 L 636.475 364.703 C 636.475 364.703 636.497 364.758 636.538 364.869 C 636.594 365.064 636.636 365.189 636.663 365.245 L 637.484 367.325 L 635.473 367.325" fill="#ffffff" fill-rule="nonzero"/>
<path d="M 643.833 364.23 L 643.833 367.305 C 643.833 367.82 643.714 368.203 643.491 368.453 C 643.261 368.711 642.92 368.836 642.461 368.836 C 642.002 368.836 641.661 368.711 641.439 368.453 C 641.209 368.203 641.097 367.82 641.097 367.305 L 641.097 364.23 L 640.702 364.23 L 640.702 367.284 C 640.702 367.917 640.847 368.397 641.153 368.725 C 641.445 369.044 641.877 369.205 642.461 369.205 C 643.031 369.205 643.47 369.044 643.777 368.725 C 644.083 368.405 644.236 367.923 644.236 367.284 L 644.228 364.23 L 643.833 364.23" fill="#ffffff" fill-rule="nonzero"/>
<path d="M 650.573 365.398 C 650.386 364.995 650.128 364.689 649.795 364.466 C 649.453 364.244 649.064 364.131 648.627 364.131 C 648.313 364.131 648.02 364.194 647.742 364.312 C 647.464 364.437 647.227 364.605 647.033 364.82 C 646.831 365.044 646.678 365.308 646.566 365.62 C 646.455 365.941 646.398 366.289 646.398 366.672 C 646.398 367.061 646.455 367.409 646.566 367.716 C 646.678 368.028 646.831 368.292 647.025 368.516 C 647.22 368.737 647.45 368.912 647.728 369.03 C 648.006 369.148 648.306 369.205 648.613 369.205 C 649.078 369.205 649.489 369.086 649.844 368.842 C 650.192 368.606 650.456 368.258 650.623 367.806 L 650.241 367.694 C 650.088 368.05 649.872 368.328 649.594 368.522 C 649.302 368.731 648.973 368.828 648.613 368.828 C 648.347 368.828 648.111 368.78 647.888 368.683 C 647.659 368.584 647.464 368.439 647.311 368.258 C 647.144 368.07 647.019 367.847 646.934 367.583 C 646.838 367.319 646.795 367.019 646.795 366.686 C 646.795 366.352 646.838 366.052 646.928 365.787 C 647.011 365.53 647.138 365.308 647.303 365.112 C 647.456 364.931 647.652 364.786 647.875 364.689 C 648.097 364.591 648.341 364.542 648.605 364.542 C 648.945 364.542 649.252 364.627 649.523 364.792 C 649.788 364.959 649.997 365.203 650.15 365.523 L 650.178 365.503 L 650.573 365.398" fill="#ffffff" fill-rule="nonzero"/>
<path d="M 652.367 364.23 L 652.367 364.605 L 653.891 364.605 L 653.891 369.1 L 654.288 369.1 L 654.288 364.605 L 655.811 364.605 L 655.811 364.23 L 652.367 364.23" fill="#ffffff" fill-rule="nonzero"/>
<path d="M 658.423 369.1 L 658.423 364.23 L 658.027 364.23 L 658.027 369.1 L 658.423 369.1" fill="#ffffff" fill-rule="nonzero"/>
<path d="M 660.678 366.686 C 660.678 367.075 660.734 367.423 660.845 367.73 C 660.956 368.042 661.109 368.306 661.305 368.53 C 661.5 368.752 661.73 368.927 662.008 369.044 C 662.286 369.162 662.584 369.219 662.891 369.219 C 663.205 369.219 663.497 369.162 663.767 369.052 C 664.039 368.933 664.275 368.766 664.478 368.544 C 664.672 368.328 664.833 368.062 664.944 367.744 C 665.055 367.437 665.111 367.083 665.111 366.692 C 665.111 366.317 665.055 365.969 664.944 365.648 C 664.833 365.336 664.672 365.072 664.478 364.848 C 664.275 364.633 664.039 364.466 663.767 364.341 C 663.489 364.222 663.191 364.159 662.877 364.159 C 662.57 364.159 662.278 364.222 662 364.341 C 661.722 364.466 661.486 364.633 661.291 364.848 C 661.089 365.072 660.936 365.336 660.825 365.648 C 660.713 365.969 660.658 366.317 660.658 366.7 L 660.678 366.686 M 661.109 366.664 C 661.109 366.331 661.152 366.031 661.242 365.767 C 661.325 365.503 661.45 365.28 661.617 365.098 C 661.778 364.919 661.966 364.78 662.188 364.681 C 662.411 364.584 662.655 364.536 662.919 364.536 C 663.177 364.536 663.42 364.584 663.642 364.681 C 663.866 364.78 664.059 364.919 664.22 365.098 C 664.38 365.28 664.505 365.503 664.595 365.767 C 664.68 366.031 664.728 366.331 664.728 366.678 C 664.728 367.006 664.68 367.305 664.589 367.569 C 664.492 367.841 664.366 368.07 664.213 368.252 C 664.047 368.445 663.858 368.584 663.636 368.683 C 663.413 368.78 663.169 368.828 662.905 368.828 C 662.641 368.828 662.397 368.78 662.175 368.683 C 661.945 368.584 661.75 368.439 661.597 368.258 C 661.43 368.07 661.305 367.847 661.22 367.583 C 661.123 367.319 661.081 367.019 661.081 366.686 L 661.109 366.664" fill="#ffffff" fill-rule="nonzero"/>
<path d="M 670.536 364.23 L 670.536 367.186 C 670.536 367.395 670.536 367.548 670.544 367.645 C 670.544 367.744 670.55 367.875 670.55 368.036 L 670.55 368.306 L 670.55 368.411 L 670.544 368.411 C 670.536 368.411 670.488 368.334 670.391 368.175 C 670.328 368.077 670.195 367.875 670.002 367.583 L 667.781 364.222 L 667.413 364.222 L 667.413 369.094 L 667.809 369.094 L 667.809 366.122 C 667.809 365.898 667.802 365.739 667.802 365.634 C 667.788 365.481 667.781 365.35 667.781 365.237 C 667.781 365.211 667.773 365.161 667.773 365.098 C 667.773 365.044 667.767 365.002 667.767 364.973 L 667.761 364.877 L 667.773 364.877 C 667.781 364.877 667.83 364.959 667.92 365.112 C 667.948 365.161 668.08 365.364 668.317 365.719 L 670.544 369.094 L 670.905 369.094 L 670.933 364.23 L 670.536 364.23" fill="#ffffff" fill-rule="nonzero"/>
<path d="M 676.438 365.37 C 676.403 365.189 676.341 365.016 676.25 364.862 C 676.152 364.709 676.041 364.577 675.908 364.466 C 675.769 364.355 675.609 364.27 675.442 364.216 C 675.269 364.159 675.081 364.131 674.878 364.131 C 674.663 364.131 674.461 364.167 674.266 364.23 C 674.072 364.298 673.911 364.383 673.786 364.486 C 673.647 364.598 673.542 364.73 673.473 364.883 C 673.397 365.036 673.363 365.203 673.363 365.384 C 673.363 365.58 673.403 365.747 673.488 365.886 C 673.57 366.031 673.675 366.15 673.808 366.241 C 673.939 366.345 674.078 366.428 674.231 366.491 C 674.356 366.547 674.495 366.609 674.663 366.678 C 674.886 366.777 675.053 366.839 675.164 366.88 C 675.317 366.942 675.47 367.019 675.623 367.103 C 675.755 367.186 675.867 367.291 675.964 367.416 C 676.048 367.541 676.097 367.694 676.097 367.875 C 676.097 368.014 676.069 368.147 676.013 368.266 C 675.95 368.391 675.873 368.495 675.777 368.572 C 675.666 368.661 675.539 368.731 675.4 368.773 C 675.247 368.828 675.081 368.85 674.906 368.85 C 674.713 368.85 674.538 368.822 674.384 368.766 C 674.231 368.711 674.1 368.634 673.988 368.536 C 673.877 368.445 673.794 368.328 673.731 368.189 C 673.661 368.05 673.627 367.903 673.613 367.75 L 673.236 367.855 C 673.264 368.05 673.32 368.23 673.403 368.397 C 673.488 368.572 673.598 368.717 673.738 368.828 C 673.884 368.953 674.05 369.052 674.239 369.106 C 674.433 369.177 674.648 369.211 674.892 369.211 C 675.13 369.211 675.352 369.177 675.547 369.106 C 675.742 369.052 675.908 368.961 676.048 368.836 C 676.188 368.725 676.291 368.578 676.367 368.411 C 676.438 368.252 676.48 368.07 676.48 367.869 C 676.48 367.653 676.43 367.464 676.341 367.305 C 676.25 367.159 676.131 367.027 675.992 366.908 C 675.859 366.811 675.7 366.714 675.519 366.63 C 675.338 366.553 675.17 366.484 675.017 366.42 C 674.753 366.323 674.6 366.261 674.566 366.247 C 674.406 366.184 674.266 366.116 674.155 366.039 C 674.03 365.969 673.933 365.878 673.863 365.767 C 673.78 365.662 673.745 365.544 673.745 365.405 C 673.745 365.28 673.772 365.155 673.828 365.044 C 673.884 364.939 673.961 364.848 674.058 364.766 C 674.148 364.695 674.266 364.639 674.406 364.591 C 674.531 364.55 674.677 364.528 674.844 364.528 C 675.158 364.528 675.422 364.619 675.638 364.792 C 675.845 364.967 675.978 365.211 676.034 365.517 L 676.061 365.467 L 676.438 365.37" fill="#ffffff" fill-rule="nonzero"/>
<path d="M 586.977 366.337 C 586.9 366.337 586.834 366.309 586.777 366.251 C 586.718 366.203 586.691 366.137 586.691 366.051 C 586.691 365.964 586.718 365.893 586.777 365.835 C 586.834 365.778 586.904 365.749 586.984 365.749 C 587.066 365.749 587.13 365.778 587.177 365.835 C 587.23 365.898 587.257 365.967 587.257 366.043 C 587.257 366.124 587.23 366.191 587.177 366.243 C 587.13 366.301 587.066 366.33 586.984 366.33" fill="#ffffff" fill-rule="nonzero"/>
<path d="M 679.979 366.645 L 708.639 366.645" fill="none" stroke="#ffffff" stroke-width="1"/>
<path d="M 497.035 366.939 L 525.696 366.939" fill="none" stroke="#ffffff" stroke-width="1"/>
</svg>